<svg width="36" height="36" viewBox="0 0 36 36" fill="none" xmlns="http://www.w3.org/2000/svg">
<path d="M18 0.719971C8.47221 0.719971 0.719971 8.47221 0.719971 18C0.719971 23.1055 2.94765 27.6998 6.47997 30.8657V30.8779L6.73053 31.0939C6.77445 31.1321 6.82269 31.1637 6.86733 31.2012C7.17765 31.4633 7.49733 31.7145 7.82565 31.955C7.91421 32.0198 8.00277 32.0825 8.09277 32.1451C8.44125 32.3899 8.79765 32.6232 9.16341 32.8421C9.22461 32.8788 9.28725 32.9133 9.34845 32.9486C9.74949 33.1819 10.1592 33.4015 10.5797 33.6024C10.584 33.6045 10.5883 33.606 10.5926 33.6081C11.4919 34.0365 12.4351 34.3872 13.4114 34.6565C13.4294 34.6615 13.4474 34.6673 13.4654 34.6716C13.9269 34.7976 14.3964 34.9034 14.8723 34.9905C14.9169 34.9985 14.9609 35.0064 15.0055 35.0143C15.4649 35.0949 15.93 35.159 16.4016 35.2029C16.4556 35.208 16.5096 35.2109 16.5629 35.2152C17.0373 35.2548 17.5154 35.28 18 35.28C18.4845 35.28 18.9626 35.2548 19.4371 35.2152C19.4911 35.2109 19.5451 35.208 19.5984 35.2029C20.07 35.1597 20.5351 35.0949 20.9945 35.0143C21.0391 35.0064 21.083 34.9985 21.1277 34.9905C21.6036 34.9034 22.073 34.7976 22.5345 34.6716C22.5525 34.6665 22.5705 34.6615 22.5885 34.6565C23.5649 34.3872 24.5081 34.0365 25.4073 33.6081C25.4116 33.606 25.416 33.6045 25.4203 33.6024C25.8408 33.4015 26.2505 33.1812 26.6515 32.9486C26.7134 32.9126 26.7753 32.8788 26.8365 32.8421C27.203 32.6232 27.5594 32.3892 27.9072 32.1451C27.9965 32.0825 28.0857 32.0198 28.1743 31.955C28.5026 31.7145 28.8223 31.4633 29.1326 31.2012C29.1773 31.1637 29.2255 31.1321 29.2694 31.0939L29.52 30.8779V30.8657C33.0523 27.6991 35.28 23.1055 35.28 18C35.28 8.47221 27.5277 0.719971 18 0.719971ZM18 18C14.8241 18 12.24 15.4159 12.24 12.24C12.24 9.06405 14.8241 6.47997 18 6.47997C21.1759 6.47997 23.76 9.06405 23.76 12.24C23.76 15.4159 21.1759 18 18 18ZM20.16 19.44C24.5268 19.44 28.08 22.9932 28.08 27.36V30.2097C28.0497 30.2349 28.0181 30.258 27.9878 30.2832C27.7034 30.5143 27.4118 30.7339 27.1137 30.9441C27.0475 30.9909 26.9827 31.0392 26.9165 31.0845C26.5946 31.3041 26.2641 31.5101 25.9279 31.7052C25.8667 31.7412 25.8048 31.7765 25.7429 31.8117C25.3901 32.0097 25.0308 32.1955 24.6643 32.3654C24.6261 32.3834 24.5873 32.4007 24.5484 32.418C23.3525 32.9616 22.0925 33.3554 20.7957 33.5887C20.7547 33.5959 20.7137 33.6038 20.6726 33.611C20.2644 33.6809 19.8525 33.7349 19.4378 33.773C19.3809 33.7781 19.3233 33.7817 19.2657 33.786C18.846 33.8184 18.4241 33.84 18 33.84C17.5759 33.84 17.154 33.8184 16.7342 33.7845C16.6773 33.7802 16.6197 33.7766 16.5621 33.7716C16.1474 33.7334 15.7356 33.6801 15.3273 33.6096C15.2863 33.6024 15.2453 33.5952 15.2042 33.5872C13.9075 33.354 12.6475 32.9601 11.4516 32.4165C11.4127 32.3985 11.3738 32.382 11.3357 32.364C10.9692 32.1941 10.6099 32.0083 10.2571 31.8103C10.1952 31.775 10.134 31.7397 10.0721 31.7037C9.73581 31.5093 9.40533 31.3027 9.08349 31.0831C9.01653 31.0377 8.95173 30.9895 8.88621 30.9427C8.58813 30.7325 8.29653 30.5136 8.01213 30.2817C7.98189 30.2573 7.95021 30.2335 7.91997 30.2083V27.36C7.91997 22.9932 11.4732 19.44 15.84 19.44H20.16ZM29.52 28.8547V27.36C29.52 22.8449 26.3059 19.0663 22.0464 18.1908C23.9479 16.8941 25.2 14.7103 25.2 12.24C25.2 8.26989 21.9701 5.03997 18 5.03997C14.0299 5.03997 10.8 8.26989 10.8 12.24C10.8 14.7103 12.0521 16.8941 13.9536 18.1908C9.69405 19.0663 6.47997 22.8449 6.47997 27.36V28.8547C3.80445 26.0172 2.15997 22.1983 2.15997 18C2.15997 9.26565 9.26565 2.15997 18 2.15997C26.7343 2.15997 33.84 9.26565 33.84 18C33.84 22.1983 32.1955 26.0172 29.52 28.8547Z" fill="white"/>
</svg>
